

==========================================
	Pre-Check Configurations
==========================================

File to be converted
--------------------
		Initializing File <strong>16110822532b56b.mp4</strong> and pre checking configurations...

System hardware Information
---------------------------
		Unable log System hardware information, plaese install "lshw" 

Temporary Uploading
-------------------
		File Uploaded to Temp directory successfully and video conversion file is being executed !

Video Conversion File Execution
-------------------------------
		Video Converson File executed successfully with Target File > !16110822532b56b.mp3


==========================================
	Starting Conversion Log
==========================================

Getting Arguments
-----------------
		Filename : 16110822532b56b.mp3
File directory : 2021/01/19
Log file : /var/www/vhosts/centx.app/httpdocs/files/logs/2021/01/19/16110822532b56b.log


Conversion queue
----------------
		Getting the file information from the queue for conversion

Conversion queue
----------------
		File has been moved from Temporary dir to Conversion Queue/var/www/vhosts/centx.app/httpdocs/files/temp/16110822532b56b.ahz Orig_ /var/www/vhosts/centx.app/httpdocs/files/conversion_queue/16110822532b56b.mp3

Parsing FFmpeg Configurations
-----------------------------
		<strong>use_video_rate</strong> : 1
<strong>use_video_bit_rate</strong> : 1
<strong>use_audio_rate</strong> : 1
<strong>use_audio_bit_rate</strong> : 1
<strong>use_audio_codec</strong> : 1
<strong>use_video_codec</strong> : 1
<strong>format</strong> : mp4
<strong>video_codec</strong> : libx264
<strong>audio_codec</strong> : libfdk_aac
<strong>audio_rate</strong> : 22050
<strong>audio_bitrate</strong> : 128000
<strong>video_rate</strong> : 
<strong>video_bitrate</strong> : 
<strong>video_bitrate_hd</strong> : 
<strong>normal_res</strong> : 
<strong>high_res</strong> : 
<strong>max_video_duration</strong> : 320
<strong>resize</strong> : max
<strong>outputPath</strong> : 2021/01/19/
<strong>cb_combo_res</strong> : 
<strong>gen_240</strong> : yes
<strong>gen_360</strong> : yes
<strong>gen_480</strong> : yes
<strong>gen_720</strong> : yes
<strong>gen_1080</strong> : yes


Starting Conversion
-------------------
		Started on 2021-01-19 18:50:58 - 2021 Jan 19

Checking File...
File : /var/www/vhosts/centx.app/httpdocs/files/conversion_queue/16110822532b56b.mp3

File Exists____audio
--------------------
		Yes

Preparing file...
-----------------
		<strong>format</strong> : mp3
<strong>duration</strong> : 270.36
<strong>size</strong> : 8676467
<strong>bitrate</strong> : 256738
<strong>video_width</strong> : 640
<strong>video_height</strong> : 360
<strong>video_wh_ratio</strong> : 1.7777777777778
<strong>video_codec</strong> : mjpeg
<strong>video_rate</strong> : 90000
<strong>video_bitrate</strong> : 0
<strong>video_color</strong> : N/A
<strong>audio_codec</strong> : mp3
<strong>audio_bitrate</strong> : 256000
<strong>audio_rate</strong> : 48000
<strong>audio_channels</strong> : 2
<strong>path</strong> : /var/www/vhosts/centx.app/httpdocs/files/conversion_queue/16110822532b56b.mp3
<strong>rotation</strong> : 0


Audio Files ____ /var/www/vhosts/centx.app/httpdocs/files/conversion_queue/16110822532b56b.mp3 Resolutions: 
------------------------------------------------------------------------------------------------------------
		/var/www/vhosts/centx.app/httpdocs/files/conversion_queue/16110822532b56b.mp3

==========================================
	Video Conversionaudio
==========================================

==========================================
	Audio Conversion
==========================================

Getting Video Details Array: 
-----------------------------
		<strong>size</strong> : 8676467
<strong>duration</strong> : 270
<strong>bitrate</strong> : 251
<strong>format</strong> : mp3
<strong>video_width</strong> : 640
<strong>video_height</strong> : 360
<strong>video_wh_ratio</strong> : 1.7777777777778
<strong>video_codec</strong> : mjpeg
<strong>audio_codec</strong> : mp3
<strong>audio_rate</strong> : 48000
<strong>audio_channels</strong> : stereo


Getting out : 
--------------
		ffmpeg version 3.4.8 Copyright (c) 2000-2020 the FFmpeg developers
  built with gcc 4.8.5 (GCC) 20150623 (Red Hat 4.8.5-39)
  configuration: --prefix=/usr --bindir=/usr/bin --datadir=/usr/share/ffmpeg --docdir=/usr/share/doc/ffmpeg --incdir=/usr/include/ffmpeg --libdir=/usr/lib64 --mandir=/usr/share/man --arch=x86_64 --optflags='-O2 -g -pipe -Wall -Wp,-D_FORTIFY_SOURCE=2 -fexceptions -fstack-protector-strong --param=ssp-buffer-size=4 -grecord-gcc-switches -m64 -mtune=generic' --extra-ldflags='-Wl,-z,relro ' --extra-cflags=' ' --enable-libopencore-amrnb --enable-libopencore-amrwb --enable-libvo-amrwbenc --enable-version3 --enable-bzlib --disable-crystalhd --enable-fontconfig --enable-gcrypt --enable-gnutls --enable-ladspa --enable-libass --enable-libbluray --enable-libcdio --enable-libdrm --enable-indev=jack --enable-libfreetype --enable-libfribidi --enable-libgsm --enable-libmp3lame --enable-nvenc --enable-openal --enable-opencl --enable-opengl --enable-libopenjpeg --enable-libopus --disable-encoder=libopus --enable-libpulse --enable-librsvg --enable-libsoxr --enable-libspeex --enable-libtheora --enable-libvorbis --enable-libv4l2 --enable-libvidstab --enable-libvpx --enable-libx264 --enable-libx265 --enable-libxvid --enable-libzvbi --enable-avfilter --enable-avresample --enable-libmodplug --enable-postproc --enable-pthreads --disable-static --enable-shared --enable-gpl --disable-debug --disable-stripping --shlibdir=/usr/lib64 --enable-libmfx --enable-runtime-cpudetect
  libavutil      55. 78.100 / 55. 78.100
  libavcodec     57.107.100 / 57.107.100
  libavformat    57. 83.100 / 57. 83.100
  libavdevice    57. 10.100 / 57. 10.100
  libavfilter     6.107.100 /  6.107.100
  libavresample   3.  7.  0 /  3.  7.  0
  libswscale      4.  8.100 /  4.  8.100
  libswresample   2.  9.100 /  2.  9.100
  libpostproc    54.  7.100 / 54.  7.100
[mp3 @ 0x14f3e80] Estimating duration from bitrate, this may be inaccurate
Input #0, mp3, from '/var/www/vhosts/centx.app/httpdocs/files/conversion_queue/16110822532b56b.mp3':
  Metadata:
    album           : Rod Stewart - I am Sailing - HD -
    title           : Rod Stewart - I am Sailing - HD -
    encoder         : Lavf58.26.101
    date            : 2018
  Duration: 00:04:30.36, start: 0.000000, bitrate: 256 kb/s
    Stream #0:0: Audio: mp3, 48000 Hz, stereo, s16p, 256 kb/s
    Stream #0:1: Video: mjpeg, yuvj420p(pc, bt470bg/unknown/unknown), 640x360 [SAR 96:96 DAR 16:9], 90k tbr, 90k tbn, 90k tbc
    Metadata:
      comment         : Other
Output #0, null, to '/dev/null':
  Metadata:
    album           : Rod Stewart - I am Sailing - HD -
    title           : Rod Stewart - I am Sailing - HD -
    date            : 2018
    encoder         : Lavf57.83.100
    Stream #0:0: Video: mjpeg, yuvj420p(pc, bt470bg/unknown/unknown), 640x360 [SAR 96:96 DAR 16:9], q=2-31, 90k tbr, 90k tbn, 90k tbc
    Metadata:
      comment         : Other
    Stream #0:1: Audio: mp3, 48000 Hz, stereo, s16p, 256 kb/s
Stream mapping:
  Stream #0:1 -> #0:0 (copy)
  Stream #0:0 -> #0:1 (copy)
Press [q] to stop, [?] for help
frame=    1 fps=0.0 q=-1.0 Lsize=N/A time=00:04:30.33 bitrate=N/A speed=3.7e+03x    
video:24kB audio:8449kB subtitle:0kB other streams:0kB global headers:0kB muxing overhead: unknown


Low SD second Execute Full Command : 
-------------------------------------
		
======Converting Video=========


=======Low Resolution Conversion=======


 Sarting : Generating Low resolution video @ 2021-01-19 18:50:59 

 Converting Video SD File  

 Command : /bin/ffmpeg -i /var/www/vhosts/centx.app/httpdocs/files/conversion_queue/16110822532b56b.mp3 /var/www/vhosts/centx.app/httpdocs/files/videos/2021/01/19//16110822532b56b-audio.mp4 

 ffmpeg output : ffmpeg version 3.4.8 Copyright (c) 2000-2020 the FFmpeg developers
  built with gcc 4.8.5 (GCC) 20150623 (Red Hat 4.8.5-39)
  configuration: --prefix=/usr --bindir=/usr/bin --datadir=/usr/share/ffmpeg --docdir=/usr/share/doc/ffmpeg --incdir=/usr/include/ffmpeg --libdir=/usr/lib64 --mandir=/usr/share/man --arch=x86_64 --optflags='-O2 -g -pipe -Wall -Wp,-D_FORTIFY_SOURCE=2 -fexceptions -fstack-protector-strong --param=ssp-buffer-size=4 -grecord-gcc-switches -m64 -mtune=generic' --extra-ldflags='-Wl,-z,relro ' --extra-cflags=' ' --enable-libopencore-amrnb --enable-libopencore-amrwb --enable-libvo-amrwbenc --enable-version3 --enable-bzlib --disable-crystalhd --enable-fontconfig --enable-gcrypt --enable-gnutls --enable-ladspa --enable-libass --enable-libbluray --enable-libcdio --enable-libdrm --enable-indev=jack --enable-libfreetype --enable-libfribidi --enable-libgsm --enable-libmp3lame --enable-nvenc --enable-openal --enable-opencl --enable-opengl --enable-libopenjpeg --enable-libopus --disable-encoder=libopus --enable-libpulse --enable-librsvg --enable-libsoxr --enable-libspeex --enable-libtheora --enable-libvorbis --enable-libv4l2 --enable-libvidstab --enable-libvpx --enable-libx264 --enable-libx265 --enable-libxvid --enable-libzvbi --enable-avfilter --enable-avresample --enable-libmodplug --enable-postproc --enable-pthreads --disable-static --enable-shared --enable-gpl --disable-debug --disable-stripping --shlibdir=/usr/lib64 --enable-libmfx --enable-runtime-cpudetect
  libavutil      55. 78.100 / 55. 78.100
  libavcodec     57.107.100 / 57.107.100
  libavformat    57. 83.100 / 57. 83.100
  libavdevice    57. 10.100 / 57. 10.100
  libavfilter     6.107.100 /  6.107.100
  libavresample   3.  7.  0 /  3.  7.  0
  libswscale      4.  8.100 /  4.  8.100
  libswresample   2.  9.100 /  2.  9.100
  libpostproc    54.  7.100 / 54.  7.100
[mp3 @ 0x1895de0] Estimating duration from bitrate, this may be inaccurate
Input #0, mp3, from '/var/www/vhosts/centx.app/httpdocs/files/conversion_queue/16110822532b56b.mp3':
  Metadata:
    album           : Rod Stewart - I am Sailing - HD -
    title           : Rod Stewart - I am Sailing - HD -
    encoder         : Lavf58.26.101
    date            : 2018
  Duration: 00:04:30.36, start: 0.000000, bitrate: 256 kb/s
    Stream #0:0: Audio: mp3, 48000 Hz, stereo, s16p, 256 kb/s
    Stream #0:1: Video: mjpeg, yuvj420p(pc, bt470bg/unknown/unknown), 640x360 [SAR 96:96 DAR 16:9], 90k tbr, 90k tbn, 90k tbc
    Metadata:
      comment         : Other
Stream mapping:
  Stream #0:1 -> #0:0 (mjpeg (native) -> h264 (libx264))
  Stream #0:0 -> #0:1 (mp3 (native) -> aac (native))
Press [q] to stop, [?] for help
[mp4 @ 0x18be700] Frame rate very high for a muxer not efficiently supporting it.
Please consider specifying a lower framerate, a different muxer or -vsync 2
[libx264 @ 0x18b16a0] using SAR=1/1
[libx264 @ 0x18b16a0] MB rate (82800000) > level limit (2073600)
[libx264 @ 0x18b16a0] using cpu capabilities: MMX2 SSE2Fast SSSE3 SSE4.2 AVX FMA3 AVX2 LZCNT BMI2
[libx264 @ 0x18b16a0] profile High, level 5.2
[libx264 @ 0x18b16a0] 264 - core 148 r2795 aaa9aa8 - H.264/MPEG-4 AVC codec - Copyleft 2003-2017 - http://www.videolan.org/x264.html - options: cabac=1 ref=3 deblock=1:0:0 analyse=0x3:0x113 me=hex subme=7 psy=1 psy_rd=1.00:0.00 mixed_ref=1 me_range=16 chroma_me=1 trellis=1 8x8dct=1 cqm=0 deadzone=21,11 fast_pskip=1 chroma_qp_offset=-2 threads=3 lookahead_threads=1 sliced_threads=0 nr=0 decimate=1 interlaced=0 bluray_compat=0 constrained_intra=0 bframes=3 b_pyramid=2 b_adapt=1 b_bias=0 direct=1 weightb=1 open_gop=0 weightp=2 keyint=250 keyint_min=25 scenecut=40 intra_refresh=0 rc_lookahead=40 rc=crf mbtree=1 crf=23.0 qcomp=0.60 qpmin=0 qpmax=69 qpstep=4 ip_ratio=1.40 aq=1:1.00
Output #0, mp4, to '/var/www/vhosts/centx.app/httpdocs/files/videos/2021/01/19//16110822532b56b-audio.mp4':
  Metadata:
    album           : Rod Stewart - I am Sailing - HD -
    title           : Rod Stewart - I am Sailing - HD -
    date            : 2018
    encoder         : Lavf57.83.100
    Stream #0:0: Video: h264 (libx264) (avc1 / 0x31637661), yuvj420p(pc, progressive), 640x360 [SAR 96:96 DAR 16:9], q=-1--1, 90k fps, 90k tbn, 90k tbc
    Metadata:
      comment         : Other
      encoder         : Lavc57.107.100 libx264
    Side data:
      cpb: bitrate max/min/avg: 0/0/0 buffer size: 0 vbv_delay: -1
    Stream #0:1: Audio: aac (LC) (mp4a / 0x6134706D), 48000 Hz, stereo, fltp, 128 kb/s
    Metadata:
      encoder         : Lavc57.107.100 aac
frame=    1 fps=0.0 q=0.0 size=       0kB time=00:00:15.76 bitrate=   0.0kbits/s speed=31.5x    frame=    1 fps=1.0 q=0.0 size=     256kB time=00:00:32.27 bitrate=  65.0kbits/s speed=32.3x    frame=    1 fps=0.7 q=0.0 size=     512kB time=00:00:48.96 bitrate=  85.7kbits/s speed=32.6x    frame=    1 fps=0.5 q=0.0 size=     768kB time=00:01:05.64 bitrate=  95.8kbits/s speed=32.8x    frame=    1 fps=0.4 q=0.0 size=    1024kB time=00:01:17.03 bitrate= 108.9kbits/s speed=30.8x    frame=    1 fps=0.3 q=0.0 size=    1024kB time=00:01:28.12 bitrate=  95.2kbits/s speed=29.4x    frame=    1 fps=0.3 q=0.0 size=    1280kB time=00:01:43.46 bitrate= 101.3kbits/s speed=29.5x    frame=    1 fps=0.2 q=0.0 size=    1536kB time=00:01:57.14 bitrate= 107.4kbits/s speed=29.3x    frame=    1 fps=0.2 q=0.0 size=    1792kB time=00:02:10.92 bitrate= 112.1kbits/s speed=29.1x    frame=    1 fps=0.2 q=0.0 size=    2048kB time=00:02:21.88 bitrate= 118.2kbits/s speed=28.4x    frame=    1 fps=0.2 q=0.0 size=    2304kB time=00:02:37.50 bitrate= 119.8kbits/s speed=28.6x    frame=    1 fps=0.2 q=0.0 size=    2304kB time=00:02:52.05 bitrate= 109.7kbits/s speed=28.7x    frame=    1 fps=0.2 q=0.0 size=    2560kB time=00:03:06.28 bitrate= 112.6kbits/s speed=28.6x    frame=    1 fps=0.1 q=0.0 size=    2816kB time=00:03:20.70 bitrate= 114.9kbits/s speed=28.7x    frame=    1 fps=0.1 q=0.0 size=    3072kB time=00:03:32.77 bitrate= 118.3kbits/s speed=28.4x    frame=    1 fps=0.1 q=0.0 size=    3328kB time=00:03:47.24 bitrate= 120.0kbits/s speed=28.4x    frame=    1 fps=0.1 q=0.0 size=    3584kB time=00:04:03.92 bitrate= 120.4kbits/s speed=28.7x    frame=    1 fps=0.1 q=0.0 size=    3840kB time=00:04:20.92 bitrate= 120.6kbits/s speed=  29x    frame=    1 fps=0.1 q=33.0 Lsize=    4301kB time=00:04:30.37 bitrate= 130.3kbits/s speed=29.1x    
video:7kB audio:4243kB subtitle:0kB other streams:0kB global headers:0kB muxing overhead: 1.201068%
[libx264 @ 0x18b16a0] frame I:1     Avg QP:32.00  size:  6581
[libx264 @ 0x18b16a0] mb I  I16..4: 25.3% 63.9% 10.8%
[libx264 @ 0x18b16a0] 8x8 transform intra:63.9%
[libx264 @ 0x18b16a0] coded y,uvDC,uvAC intra: 51.2% 42.3% 4.1%
[libx264 @ 0x18b16a0] i16 v,h,dc,p: 16% 51% 12% 20%
[libx264 @ 0x18b16a0] i8 v,h,dc,ddl,ddr,vr,hd,vl,hu: 13% 35% 22%  4%  3%  3%  6%  3% 11%
[libx264 @ 0x18b16a0] i4 v,h,dc,ddl,ddr,vr,hd,vl,hu: 24% 36% 11%  4%  4%  4%  6%  4%  8%
[libx264 @ 0x18b16a0] i8c dc,h,v,p: 66% 20% 12%  3%
[libx264 @ 0x18b16a0] kb/s:4738320.00
[aac @ 0x18b4c80] Qavg: 770.247
 


Conversion Ouput
----------------
		
======Converting Video=========


=======Low Resolution Conversion=======


 Sarting : Generating Low resolution video @ 2021-01-19 18:50:59 

 Converting Video SD File  

 Command : /bin/ffmpeg -i /var/www/vhosts/centx.app/httpdocs/files/conversion_queue/16110822532b56b.mp3 /var/www/vhosts/centx.app/httpdocs/files/videos/2021/01/19//16110822532b56b-audio.mp4 

 ffmpeg output : ffmpeg version 3.4.8 Copyright (c) 2000-2020 the FFmpeg developers
  built with gcc 4.8.5 (GCC) 20150623 (Red Hat 4.8.5-39)
  configuration: --prefix=/usr --bindir=/usr/bin --datadir=/usr/share/ffmpeg --docdir=/usr/share/doc/ffmpeg --incdir=/usr/include/ffmpeg --libdir=/usr/lib64 --mandir=/usr/share/man --arch=x86_64 --optflags='-O2 -g -pipe -Wall -Wp,-D_FORTIFY_SOURCE=2 -fexceptions -fstack-protector-strong --param=ssp-buffer-size=4 -grecord-gcc-switches -m64 -mtune=generic' --extra-ldflags='-Wl,-z,relro ' --extra-cflags=' ' --enable-libopencore-amrnb --enable-libopencore-amrwb --enable-libvo-amrwbenc --enable-version3 --enable-bzlib --disable-crystalhd --enable-fontconfig --enable-gcrypt --enable-gnutls --enable-ladspa --enable-libass --enable-libbluray --enable-libcdio --enable-libdrm --enable-indev=jack --enable-libfreetype --enable-libfribidi --enable-libgsm --enable-libmp3lame --enable-nvenc --enable-openal --enable-opencl --enable-opengl --enable-libopenjpeg --enable-libopus --disable-encoder=libopus --enable-libpulse --enable-librsvg --enable-libsoxr --enable-libspeex --enable-libtheora --enable-libvorbis --enable-libv4l2 --enable-libvidstab --enable-libvpx --enable-libx264 --enable-libx265 --enable-libxvid --enable-libzvbi --enable-avfilter --enable-avresample --enable-libmodplug --enable-postproc --enable-pthreads --disable-static --enable-shared --enable-gpl --disable-debug --disable-stripping --shlibdir=/usr/lib64 --enable-libmfx --enable-runtime-cpudetect
  libavutil      55. 78.100 / 55. 78.100
  libavcodec     57.107.100 / 57.107.100
  libavformat    57. 83.100 / 57. 83.100
  libavdevice    57. 10.100 / 57. 10.100
  libavfilter     6.107.100 /  6.107.100
  libavresample   3.  7.  0 /  3.  7.  0
  libswscale      4.  8.100 /  4.  8.100
  libswresample   2.  9.100 /  2.  9.100
  libpostproc    54.  7.100 / 54.  7.100
[mp3 @ 0x1895de0] Estimating duration from bitrate, this may be inaccurate
Input #0, mp3, from '/var/www/vhosts/centx.app/httpdocs/files/conversion_queue/16110822532b56b.mp3':
  Metadata:
    album           : Rod Stewart - I am Sailing - HD -
    title           : Rod Stewart - I am Sailing - HD -
    encoder         : Lavf58.26.101
    date            : 2018
  Duration: 00:04:30.36, start: 0.000000, bitrate: 256 kb/s
    Stream #0:0: Audio: mp3, 48000 Hz, stereo, s16p, 256 kb/s
    Stream #0:1: Video: mjpeg, yuvj420p(pc, bt470bg/unknown/unknown), 640x360 [SAR 96:96 DAR 16:9], 90k tbr, 90k tbn, 90k tbc
    Metadata:
      comment         : Other
Stream mapping:
  Stream #0:1 -> #0:0 (mjpeg (native) -> h264 (libx264))
  Stream #0:0 -> #0:1 (mp3 (native) -> aac (native))
Press [q] to stop, [?] for help
[mp4 @ 0x18be700] Frame rate very high for a muxer not efficiently supporting it.
Please consider specifying a lower framerate, a different muxer or -vsync 2
[libx264 @ 0x18b16a0] using SAR=1/1
[libx264 @ 0x18b16a0] MB rate (82800000) > level limit (2073600)
[libx264 @ 0x18b16a0] using cpu capabilities: MMX2 SSE2Fast SSSE3 SSE4.2 AVX FMA3 AVX2 LZCNT BMI2
[libx264 @ 0x18b16a0] profile High, level 5.2
[libx264 @ 0x18b16a0] 264 - core 148 r2795 aaa9aa8 - H.264/MPEG-4 AVC codec - Copyleft 2003-2017 - http://www.videolan.org/x264.html - options: cabac=1 ref=3 deblock=1:0:0 analyse=0x3:0x113 me=hex subme=7 psy=1 psy_rd=1.00:0.00 mixed_ref=1 me_range=16 chroma_me=1 trellis=1 8x8dct=1 cqm=0 deadzone=21,11 fast_pskip=1 chroma_qp_offset=-2 threads=3 lookahead_threads=1 sliced_threads=0 nr=0 decimate=1 interlaced=0 bluray_compat=0 constrained_intra=0 bframes=3 b_pyramid=2 b_adapt=1 b_bias=0 direct=1 weightb=1 open_gop=0 weightp=2 keyint=250 keyint_min=25 scenecut=40 intra_refresh=0 rc_lookahead=40 rc=crf mbtree=1 crf=23.0 qcomp=0.60 qpmin=0 qpmax=69 qpstep=4 ip_ratio=1.40 aq=1:1.00
Output #0, mp4, to '/var/www/vhosts/centx.app/httpdocs/files/videos/2021/01/19//16110822532b56b-audio.mp4':
  Metadata:
    album           : Rod Stewart - I am Sailing - HD -
    title           : Rod Stewart - I am Sailing - HD -
    date            : 2018
    encoder         : Lavf57.83.100
    Stream #0:0: Video: h264 (libx264) (avc1 / 0x31637661), yuvj420p(pc, progressive), 640x360 [SAR 96:96 DAR 16:9], q=-1--1, 90k fps, 90k tbn, 90k tbc
    Metadata:
      comment         : Other
      encoder         : Lavc57.107.100 libx264
    Side data:
      cpb: bitrate max/min/avg: 0/0/0 buffer size: 0 vbv_delay: -1
    Stream #0:1: Audio: aac (LC) (mp4a / 0x6134706D), 48000 Hz, stereo, fltp, 128 kb/s
    Metadata:
      encoder         : Lavc57.107.100 aac
frame=    1 fps=0.0 q=0.0 size=       0kB time=00:00:15.76 bitrate=   0.0kbits/s speed=31.5x    frame=    1 fps=1.0 q=0.0 size=     256kB time=00:00:32.27 bitrate=  65.0kbits/s speed=32.3x    frame=    1 fps=0.7 q=0.0 size=     512kB time=00:00:48.96 bitrate=  85.7kbits/s speed=32.6x    frame=    1 fps=0.5 q=0.0 size=     768kB time=00:01:05.64 bitrate=  95.8kbits/s speed=32.8x    frame=    1 fps=0.4 q=0.0 size=    1024kB time=00:01:17.03 bitrate= 108.9kbits/s speed=30.8x    frame=    1 fps=0.3 q=0.0 size=    1024kB time=00:01:28.12 bitrate=  95.2kbits/s speed=29.4x    frame=    1 fps=0.3 q=0.0 size=    1280kB time=00:01:43.46 bitrate= 101.3kbits/s speed=29.5x    frame=    1 fps=0.2 q=0.0 size=    1536kB time=00:01:57.14 bitrate= 107.4kbits/s speed=29.3x    frame=    1 fps=0.2 q=0.0 size=    1792kB time=00:02:10.92 bitrate= 112.1kbits/s speed=29.1x    frame=    1 fps=0.2 q=0.0 size=    2048kB time=00:02:21.88 bitrate= 118.2kbits/s speed=28.4x    frame=    1 fps=0.2 q=0.0 size=    2304kB time=00:02:37.50 bitrate= 119.8kbits/s speed=28.6x    frame=    1 fps=0.2 q=0.0 size=    2304kB time=00:02:52.05 bitrate= 109.7kbits/s speed=28.7x    frame=    1 fps=0.2 q=0.0 size=    2560kB time=00:03:06.28 bitrate= 112.6kbits/s speed=28.6x    frame=    1 fps=0.1 q=0.0 size=    2816kB time=00:03:20.70 bitrate= 114.9kbits/s speed=28.7x    frame=    1 fps=0.1 q=0.0 size=    3072kB time=00:03:32.77 bitrate= 118.3kbits/s speed=28.4x    frame=    1 fps=0.1 q=0.0 size=    3328kB time=00:03:47.24 bitrate= 120.0kbits/s speed=28.4x    frame=    1 fps=0.1 q=0.0 size=    3584kB time=00:04:03.92 bitrate= 120.4kbits/s speed=28.7x    frame=    1 fps=0.1 q=0.0 size=    3840kB time=00:04:20.92 bitrate= 120.6kbits/s speed=  29x    frame=    1 fps=0.1 q=33.0 Lsize=    4301kB time=00:04:30.37 bitrate= 130.3kbits/s speed=29.1x    
video:7kB audio:4243kB subtitle:0kB other streams:0kB global headers:0kB muxing overhead: 1.201068%
[libx264 @ 0x18b16a0] frame I:1     Avg QP:32.00  size:  6581
[libx264 @ 0x18b16a0] mb I  I16..4: 25.3% 63.9% 10.8%
[libx264 @ 0x18b16a0] 8x8 transform intra:63.9%
[libx264 @ 0x18b16a0] coded y,uvDC,uvAC intra: 51.2% 42.3% 4.1%
[libx264 @ 0x18b16a0] i16 v,h,dc,p: 16% 51% 12% 20%
[libx264 @ 0x18b16a0] i8 v,h,dc,ddl,ddr,vr,hd,vl,hu: 13% 35% 22%  4%  3%  3%  6%  3% 11%
[libx264 @ 0x18b16a0] i4 v,h,dc,ddl,ddr,vr,hd,vl,hu: 24% 36% 11%  4%  4%  4%  6%  4%  8%
[libx264 @ 0x18b16a0] i8c dc,h,v,p: 66% 20% 12%  3%
[libx264 @ 0x18b16a0] kb/s:4738320.00
[aac @ 0x18b4c80] Qavg: 770.247
 

 Sarting : MP4Box Conversion for SD 

 MP4Box Command : /usr/bin/MP4Box -inter 0.5 /var/www/vhosts/centx.app/httpdocs/files/videos/2021/01/19//16110822532b56b-audio.mp4  -tmp /var/www/vhosts/centx.app/httpdocs/files/temp 

 output : Saving /var/www/vhosts/centx.app/httpdocs/files/videos/2021/01/19//16110822532b56b-audio.mp4: 0.001 secs Interleaving
ISO File Writing: |                    | (01/100)ISO File Writing: |                    | (02/100)ISO File Writing: |                    | (03/100)ISO File Writing: |                    | (04/100)ISO File Writing: |=                   | (05/100)ISO File Writing: |=                   | (06/100)ISO File Writing: |=                   | (07/100)ISO File Writing: |=                   | (08/100)ISO File Writing: |=                   | (09/100)ISO File Writing: |==                  | (10/100)ISO File Writing: |==                  | (11/100)ISO File Writing: |==                  | (12/100)ISO File Writing: |==                  | (13/100)ISO File Writing: |==                  | (14/100)ISO File Writing: |===                 | (15/100)ISO File Writing: |===                 | (16/100)ISO File Writing: |===                 | (17/100)ISO File Writing: |===                 | (18/100)ISO File Writing: |===                 | (19/100)ISO File Writing: |====                | (20/100)ISO File Writing: |====                | (21/100)ISO File Writing: |====                | (22/100)ISO File Writing: |====                | (23/100)ISO File Writing: |====                | (24/100)ISO File Writing: |=====               | (25/100)ISO File Writing: |=====               | (26/100)ISO File Writing: |=====               | (27/100)ISO File Writing: |=====               | (28/100)ISO File Writing: |=====               | (29/100)ISO File Writing: |======              | (30/100)ISO File Writing: |======              | (31/100)ISO File Writing: |======              | (32/100)ISO File Writing: |======              | (33/100)ISO File Writing: |======              | (34/100)ISO File Writing: |=======             | (35/100)ISO File Writing: |=======             | (36/100)ISO File Writing: |=======             | (37/100)ISO File Writing: |=======             | (38/100)ISO File Writing: |=======             | (39/100)ISO File Writing: |========            | (40/100)ISO File Writing: |========            | (41/100)ISO File Writing: |========            | (42/100)ISO File Writing: |========            | (43/100)ISO File Writing: |========            | (44/100)ISO File Writing: |=========           | (45/100)ISO File Writing: |=========           | (46/100)ISO File Writing: |=========           | (47/100)ISO File Writing: |=========           | (48/100)ISO File Writing: |=========           | (49/100)ISO File Writing: |==========          | (50/100)ISO File Writing: |==========          | (51/100)ISO File Writing: |==========          | (52/100)ISO File Writing: |==========          | (53/100)ISO File Writing: |==========          | (54/100)ISO File Writing: |===========         | (55/100)ISO File Writing: |===========         | (56/100)ISO File Writing: |===========         | (57/100)ISO File Writing: |===========         | (58/100)ISO File Writing: |===========         | (59/100)ISO File Writing: |============        | (60/100)ISO File Writing: |============        | (61/100)ISO File Writing: |============        | (62/100)ISO File Writing: |============        | (63/100)ISO File Writing: |============        | (64/100)ISO File Writing: |=============       | (65/100)ISO File Writing: |=============       | (66/100)ISO File Writing: |=============       | (67/100)ISO File Writing: |=============       | (68/100)ISO File Writing: |=============       | (69/100)ISO File Writing: |==============      | (70/100)ISO File Writing: |==============      | (71/100)ISO File Writing: |==============      | (72/100)ISO File Writing: |==============      | (73/100)ISO File Writing: |==============      | (74/100)ISO File Writing: |===============     | (75/100)ISO File Writing: |===============     | (76/100)ISO File Writing: |===============     | (77/100)ISO File Writing: |===============     | (78/100)ISO File Writing: |===============     | (79/100)ISO File Writing: |================    | (80/100)ISO File Writing: |================    | (81/100)ISO File Writing: |================    | (82/100)ISO File Writing: |================    | (83/100)ISO File Writing: |================    | (84/100)ISO File Writing: |=================   | (85/100)ISO File Writing: |=================   | (86/100)ISO File Writing: |=================   | (87/100)ISO File Writing: |=================   | (88/100)ISO File Writing: |=================   | (89/100)ISO File Writing: |==================  | (90/100)ISO File Writing: |==================  | (91/100)ISO File Writing: |==================  | (92/100)ISO File Writing: |==================  | (93/100)ISO File Writing: |==================  | (94/100)ISO File Writing: |=================== | (95/100)ISO File Writing: |=================== | (96/100)ISO File Writing: |=================== | (97/100)ISO File Writing: |=================== | (98/100)ISO File Writing: |=================== | (99/100)ISO File Writing: |====================| (100/100)                                                         

 Conversion Status : Successful @ 2021-01-19 18:51:08 


OutPut Deatils
--------------
		<strong>format</strong> : mov,mp4,m4a,3gp,3g2,mj2
<strong>duration</strong> : 270.36
<strong>size</strong> : 4405507
<strong>bitrate</strong> : 130359
<strong>video_width</strong> : 640
<strong>video_height</strong> : 360
<strong>video_wh_ratio</strong> : 1.7777777777778
<strong>video_codec</strong> : h264
<strong>video_rate</strong> : 90000
<strong>video_bitrate</strong> : 5235120000
<strong>video_color</strong> : N/A
<strong>audio_codec</strong> : aac
<strong>audio_bitrate</strong> : 128554
<strong>audio_rate</strong> : 48000
<strong>audio_channels</strong> : 2
<strong>path</strong> : /var/www/vhosts/centx.app/httpdocs/files/videos/2021/01/19//16110822532b56b-audio.mp4
<strong>rotation</strong> : 0


Conversion Completed___ Output File/var/www/vhosts/centx.app/httpdocs/files/videos/2021/01/19//16110822532b56b-audio.mp4
------------------------------------------------------------------------------------------------------------------------
		

Time Took : 9.9048 seconds

conversion_status : completed 
